<svg width="548" height="572" viewBox="0 0 548 572" fill="none" xmlns="http://www.w3.org/2000/svg">
<g clip-path="url(#clip0)">
<path d="M220.962 356.86C222.052 354.71 223.865 353.01 225.373 351.11C225.154 351.288 224.926 351.455 224.69 351.61C223.575 352.075 222.543 352.713 221.634 353.5C221.078 354.258 220.702 355.13 220.534 356.05L217.937 365.96C218.446 365.33 218.956 364.71 219.475 364.09C219.442 361.604 219.949 359.139 220.962 356.86V356.86Z" fill="#F2F2F2"/>
<path d="M323.34 356.89C323.325 355.585 323.055 354.295 322.546 353.09C322.018 352.11 321.353 351.208 320.57 350.41L318.37 347.95C317.249 374.07 314.866 400.26 319.816 425.84C320.621 429.98 321.69 434.24 324.4 437.51C325.124 438.202 325.66 439.062 325.958 440.01C330.032 424.41 327.741 407.51 325.337 391.37C325.103 389.618 324.746 387.884 324.267 386.18C322.458 379.637 322.035 372.8 323.025 366.09C323.436 363.041 323.542 359.959 323.34 356.89V356.89Z" fill="#F2F2F2"/>
<path d="M335.95 301.76C338.894 306.52 340.728 312.16 342.378 317.55L343.081 319.88C342.744 311.98 342.581 304.07 342.52 296.16C340.931 297.547 339.332 298.917 337.723 300.27L335.95 301.76Z" fill="#F2F2F2"/>
<path d="M359.633 568.33C360.078 562.791 359.642 557.217 358.339 551.81C357.443 548.38 356.057 545.03 355.935 541.5C355.96 539.142 356.254 536.794 356.811 534.5C360.998 513.59 362.8 491.61 356.465 471.23C354.764 465.77 352.513 460.49 350.781 455.05C349.992 457.092 349.031 459.065 347.909 460.95C347.669 460.072 347.233 459.257 346.632 458.565C346.032 457.873 345.281 457.321 344.435 456.95C344.483 457.92 344.459 458.893 344.364 459.86C344.061 463.128 343.588 466.379 342.948 469.6C342.779 470.886 342.353 472.126 341.695 473.25C340.853 474.399 339.724 475.315 338.415 475.91C339.006 477.23 339.597 478.54 340.178 479.91L335.93 481.09C338.721 487.09 336.399 493.94 334.911 500.31C329.584 522.5 334.382 546.2 331.856 568.64L359.633 568.33Z" fill="#F2F2F2"/>
<path d="M344.211 250.86C345.301 248.71 347.114 247.01 348.622 245.11C348.403 245.288 348.175 245.455 347.939 245.61C346.824 246.075 345.792 246.713 344.884 247.5C344.327 248.258 343.951 249.13 343.783 250.05L341.186 259.96C341.695 259.33 342.205 258.71 342.724 258.09C342.691 255.604 343.198 253.139 344.211 250.86V250.86Z" fill="#F2F2F2"/>
<path d="M402.169 447.46L398.685 567.91L407.853 567.81C406.239 553.152 405.504 538.413 405.652 523.67C405.652 519.38 405.805 515.04 404.899 510.85C404.257 507.92 403.137 505.11 402.525 502.17C401.926 498.652 401.697 495.084 401.843 491.52L402.169 447.46Z" fill="#F2F2F2"/>
<path d="M323.391 447.53C323.534 447.19 323.677 446.87 323.809 446.53C324.288 445.31 324.716 444.08 325.113 442.84L325.031 442.98C324.227 444.28 323.351 445.53 322.444 446.76C322.77 447 323.086 447.26 323.391 447.53Z" fill="#F2F2F2"/>
<path d="M46.3357 403.53C46.4783 403.19 46.6209 402.87 46.7533 402.53C47.2321 401.31 47.6599 400.08 48.0571 398.84L47.9756 398.98C47.171 400.28 46.295 401.53 45.3884 402.76C45.7144 403 46.0301 403.26 46.3357 403.53Z" fill="#F2F2F2"/>
<path d="M1.86411 509.46C1.26654 530.36 0.662178 551.26 0.0510254 572.16L4.42076 572.11C3.76886 569.45 2.80121 566.86 2.24098 564.17C1.64152 560.652 1.41283 557.084 1.55853 553.52L1.86411 509.46Z" fill="#F2F2F2"/>
<path d="M67.3082 569.86C65.9999 569.265 64.8701 568.349 64.0284 567.2C63.3706 566.076 62.9449 564.836 62.7755 563.55C62.1356 560.329 61.663 557.078 61.3596 553.81C61.2644 552.843 61.2406 551.87 61.2884 550.9C60.4427 551.271 59.692 551.823 59.0911 552.515C58.4902 553.207 58.0543 554.022 57.815 554.9C54.837 549.726 52.894 544.04 52.0905 538.15C51.7849 539.15 51.4692 540.25 51.0719 541.3C48.9533 547.49 45.8771 553.48 45.266 559.98C44.9722 563.898 45.3161 567.838 46.2846 571.65L66.5137 571.44L67.3082 569.86Z" fill="#F2F2F2"/>
<path d="M80.6111 536.84C81.0083 538.08 81.4361 539.31 81.9149 540.53C82.0473 540.87 82.1899 541.19 82.3325 541.53C82.6381 541.26 82.9538 541 83.2798 540.76C82.3732 539.53 81.4972 538.28 80.6926 536.98L80.6111 536.84Z" fill="#F2F2F2"/>
<path d="M226.544 557.64C225.115 551.682 224.138 545.629 223.621 539.53C222.004 524.863 220.388 510.197 218.772 495.53C218.721 495.14 218.68 494.76 218.64 494.37C218.579 494.56 218.528 494.75 218.467 494.94C217.234 498.49 214.79 501.49 212.355 504.41C209.921 507.33 206.875 510.34 203.3 509.49C201.834 509.016 200.504 508.207 199.419 507.13L191.27 500.22C189.661 498.887 188.062 497.517 186.473 496.11C186.401 505.76 186.177 515.41 185.668 525.04C185.505 528.04 185.25 531.27 183.784 533.94C186.79 543.109 188.457 552.651 188.734 562.28C188.805 564.89 188.734 567.49 188.653 570.1L212.528 569.85H212.671L230.629 569.66C229.131 565.72 227.624 561.75 226.544 557.64Z" fill="#F2F2F2"/>
<path d="M186.208 458.09C186.717 458.71 187.227 459.33 187.746 459.96L185.149 450.09C184.981 449.17 184.605 448.298 184.049 447.54C183.14 446.753 182.108 446.115 180.993 445.65C180.757 445.495 180.529 445.328 180.31 445.15C181.818 447.05 183.631 448.75 184.721 450.9C185.728 453.167 186.235 455.617 186.208 458.09V458.09Z" fill="#F2F2F2"/>
<path d="M215.737 414.16C216.378 421.1 216.755 428.07 217.112 435.04C217.468 442.01 217.835 448.8 218.191 455.68C219.023 450.36 220.283 445.114 221.96 439.99C220.493 437.32 220.239 434.14 220.076 431.09C219.567 421.46 219.342 411.81 219.271 402.16C217.713 403.53 216.134 404.87 214.545 406.16C215.137 408.795 215.536 411.469 215.737 414.16V414.16Z" fill="#F2F2F2"/>
<path d="M80.4174 485.41C78.0136 501.55 75.6912 518.41 79.7961 534.05C80.0939 533.102 80.6298 532.242 81.3545 531.55C84.064 528.28 85.1335 524.02 85.9382 519.88C90.8885 494.3 88.505 468.11 87.3846 441.99L85.215 444.45C84.4131 445.232 83.7273 446.12 83.1778 447.09C82.6629 448.281 82.3829 449.557 82.3527 450.85C82.1524 453.913 82.2582 456.987 82.6685 460.03C83.6761 466.757 83.2635 473.616 81.4564 480.18C80.9865 481.897 80.6393 483.645 80.4174 485.41V485.41Z" fill="#F2F2F2"/>
<path d="M448.749 567.38L456.735 567.29C452.477 543.22 458.619 517.37 452.833 493.29C451.927 489.54 450.796 485.61 450.511 481.8C448.474 487.12 446.141 492.36 445.612 497.98C444.685 507.72 449.35 517.04 451.081 526.66C453.465 539.93 450.236 553.46 448.8 566.86C448.779 567.09 448.769 567.21 448.749 567.38Z" fill="#F2F2F2"/>
<path d="M278.818 569.19C278.818 563.95 278.852 558.707 278.92 553.46C278.764 558.713 278.614 563.96 278.472 569.2L278.818 569.19Z" fill="#F2F2F2"/>
<path d="M462.581 435.84C462.978 437.08 463.406 438.31 463.885 439.53C464.017 439.87 464.16 440.19 464.302 440.53C464.608 440.26 464.924 440 465.25 439.76C464.343 438.53 463.467 437.28 462.663 435.98L462.581 435.84Z" fill="#F2F2F2"/>
<path d="M508.774 546.46C508.815 553.22 508.859 559.98 508.907 566.74H509.355L508.774 546.46Z" fill="#F2F2F2"/>
<path d="M529.319 548.22V572.22H4.74658V548.22C4.74658 546.364 5.49778 544.583 6.83494 543.27C8.17209 541.958 9.98567 541.22 11.8767 541.22H522.189C524.08 541.22 525.894 541.958 527.231 543.27C528.568 544.583 529.319 546.364 529.319 548.22V548.22Z" fill="#3F3D56"/>
<path d="M330.46 191.52C334.351 195.45 338.09 199.99 338.823 205.42C330.532 207.55 322.047 203.55 314.295 199.98C290.308 188.905 264.978 180.884 238.92 176.11C236.883 175.74 234.703 175.33 233.165 173.95C230.262 171.34 230.792 164.76 233.491 162.05C236.404 159.13 241.792 159.55 245.714 159.34C261.355 158.562 276.989 161.025 291.597 166.57C306.205 172.114 319.46 180.615 330.501 191.52H330.46Z" fill="#192534"/>
<path d="M503.182 572.18H294.83C292.05 565.951 289.861 559.484 288.291 552.86C287.761 550.8 287.272 548.72 286.783 546.65C286.356 544.83 285.948 543 285.561 541.18C284.38 535.707 283.361 530.21 282.505 524.69C281.684 519.49 281.005 514.273 280.468 509.04C279.938 504.033 279.528 499.01 279.236 493.97C279.236 493.83 279.236 493.69 279.236 493.54C279.113 491.15 279.236 488.54 280.906 486.85C282.373 485.4 284.614 485.08 286.702 484.94C304.018 483.78 320.845 489.94 338.12 489.03C342.806 488.76 346.574 488.03 350.934 488.91C351.624 489.037 352.304 489.207 352.971 489.42C353.99 489.73 354.937 490.06 355.905 490.42C362.536 492.75 368.719 495.69 375.849 497C387.99 499.25 400.448 498.81 412.772 499.68C413.791 499.74 414.81 499.82 415.828 499.92C417.081 500.02 418.334 500.15 419.577 500.3C430.138 501.675 440.506 504.224 450.481 507.9C455.859 509.81 461.155 511.97 466.381 514.26C467.878 514.92 469.365 515.58 470.852 516.26C473.501 517.47 476.19 518.75 478.818 520.14C479.836 520.67 480.855 521.21 481.812 521.78C489.727 526.29 496.877 531.89 501.043 539.49C501.359 540.05 501.644 540.62 501.919 541.2C502.194 541.78 502.398 542.27 502.622 542.82C506.258 552.09 504.985 562.09 503.182 572.18Z" fill="#202F42"/>
<path opacity="0.1" d="M503.182 572.18H294.83C292.05 565.951 289.861 559.484 288.291 552.86C287.761 550.8 287.272 548.72 286.783 546.65C286.356 544.83 285.948 543 285.561 541.18C284.38 535.707 283.361 530.21 282.505 524.69C281.684 519.49 281.005 514.273 280.468 509.04C279.938 504.033 279.528 499.01 279.236 493.97C279.236 493.83 279.236 493.69 279.236 493.54C279.113 491.15 279.236 488.54 280.906 486.85C282.373 485.4 284.614 485.08 286.702 484.94C304.018 483.78 320.845 489.94 338.12 489.03C342.806 488.76 346.574 488.03 350.934 488.91C351.624 489.037 352.304 489.207 352.971 489.42C353.99 489.73 354.937 490.06 355.905 490.42C362.536 492.75 368.719 495.69 375.849 497C387.99 499.25 400.448 498.81 412.772 499.68C413.791 499.74 414.81 499.82 415.828 499.92C417.081 500.02 418.334 500.15 419.577 500.3C430.138 501.675 440.506 504.224 450.481 507.9C455.859 509.81 461.155 511.97 466.381 514.26C467.878 514.92 469.365 515.58 470.852 516.26C473.501 517.47 476.19 518.75 478.818 520.14C479.836 520.67 480.855 521.21 481.812 521.78C489.727 526.29 496.877 531.89 501.043 539.49C501.359 540.05 501.644 540.62 501.919 541.2C502.194 541.78 502.398 542.27 502.622 542.82C506.258 552.09 504.985 562.09 503.182 572.18Z" fill="black"/>
<path d="M313.022 572.18H78.1868C72.9105 566.48 69.4575 559.05 70.3131 551.48C70.6202 548.333 71.1581 545.211 71.9225 542.14C72.004 541.81 72.0956 541.49 72.1873 541.14C73.6925 535.326 77.4301 530.31 82.6176 527.14C91.8664 521.31 102.989 519.03 113.175 515.25C118.645 513.25 123.921 510.72 129.391 508.71C137.258 505.925 145.38 503.889 153.644 502.63C154.56 502.48 155.487 502.33 156.404 502.2C157.321 502.07 158.289 501.91 159.236 501.78C164.329 501.06 169.422 500.47 174.566 499.89C185.77 498.6 197.148 497.32 208.423 498.3C217.432 499.219 226.3 501.172 234.846 504.12C241.283 506.23 247.639 508.68 253.954 511.12C263.804 514.94 273.735 518.85 282.526 524.58C283.29 525.08 284.033 525.58 284.777 526.11C290.627 530.28 295.758 535.345 299.974 541.11C302.42 544.415 304.57 547.921 306.401 551.59C309.64 558.092 311.871 565.032 313.022 572.18V572.18Z" fill="#202F42"/>
<path d="M246.06 169.02C242.21 177.31 235.681 184.82 226.931 187.87C222.276 189.49 217.255 189.78 212.508 191.11C207.761 192.44 202.974 195.19 201.304 199.74C200.69 201.733 200.395 203.808 200.428 205.89C199.704 225.44 199.114 245.76 207.069 263.7C213.944 279.18 226.544 291.41 238.991 303.07C253.557 316.71 268.979 330.54 288.138 336.64C299.343 340.19 312.533 340.58 321.802 333.51C325.612 330.6 328.444 326.67 331.224 322.79C337.336 314.24 343.549 305.57 347.4 295.79C355.294 275.79 352.635 253.51 349.854 232.26C349.838 230.998 349.352 229.785 348.489 228.85C347.41 227.96 345.831 228.08 344.415 228.16C334.504 228.74 323.687 223.75 320.366 214.57C318.94 210.57 318.981 206.29 319.052 202.09L319.439 177.87C319.439 175.26 319.511 172.56 318.512 170.13C316.771 165.91 312.401 163.44 308.214 161.4C294.716 154.771 280.645 149.33 266.167 145.14C259.832 143.31 255.014 140.26 252.192 146.94C249.208 153.89 249.34 161.95 246.06 169.02Z" fill="#FBBEBE"/>
<path opacity="0.1" d="M246.06 169.02C242.21 177.31 235.681 184.82 226.931 187.87C222.276 189.49 217.255 189.78 212.508 191.11C207.761 192.44 202.974 195.19 201.304 199.74C200.69 201.733 200.395 203.808 200.428 205.89C199.704 225.44 199.114 245.76 207.069 263.7C213.944 279.18 226.544 291.41 238.991 303.07C253.557 316.71 268.979 330.54 288.138 336.64C299.343 340.19 312.533 340.58 321.802 333.51C325.612 330.6 328.444 326.67 331.224 322.79C337.336 314.24 343.549 305.57 347.4 295.79C355.294 275.79 352.635 253.51 349.854 232.26C349.838 230.998 349.352 229.785 348.489 228.85C347.41 227.96 345.831 228.08 344.415 228.16C334.504 228.74 323.687 223.75 320.366 214.57C318.94 210.57 318.981 206.29 319.052 202.09L319.439 177.87C319.439 175.26 319.511 172.56 318.512 170.13C316.771 165.91 312.401 163.44 308.214 161.4C294.716 154.771 280.645 149.33 266.167 145.14C259.832 143.31 255.014 140.26 252.192 146.94C249.208 153.89 249.34 161.95 246.06 169.02Z" fill="black"/>
<path d="M312.869 188.69C354.498 188.69 388.245 155.559 388.245 114.69C388.245 73.8209 354.498 40.69 312.869 40.69C271.24 40.69 237.494 73.8209 237.494 114.69C237.494 155.559 271.24 188.69 312.869 188.69Z" fill="#FBBEBE"/>
<path d="M320.03 230.71L311.606 251.24C309.701 255.88 307.766 260.57 304.832 264.66C296.735 275.93 280.784 281.09 267.481 276.75C254.922 272.68 243.778 261.14 230.812 263.91C224.089 265.35 218.731 270.65 215.737 276.73C212.742 282.81 211.785 289.65 211.143 296.38C208.179 327.509 211.203 358.908 220.055 388.94C220.972 392.04 222.093 395.29 224.527 397.43C227.501 399.99 231.769 400.37 235.732 400.59C254.066 401.663 272.435 402.297 290.837 402.49C302.143 402.62 313.501 402.58 324.664 400.86C335.828 399.14 346.513 395.86 357.524 393.7C367.822 391.7 378.364 390.77 388.428 387.86C390.068 387.39 391.799 386.79 392.808 385.45C393.589 384.171 393.945 382.686 393.826 381.2C393.826 375.44 392.003 369.84 390.027 364.42C384.934 350.59 378.986 336.98 376.154 322.55C372.253 302.7 374.545 282.25 374.117 262.03C373.974 254.79 373.465 247.43 370.929 240.62C368.392 233.81 363.595 227.55 356.842 224.62C345.199 219.53 325.602 217.25 320.03 230.71Z" fill="#6C63FF"/>
<path d="M281.293 327.86C275.915 323.38 276.2 315.39 275.559 308.49C274.387 295.55 268.653 283.49 263.01 271.73L246.152 236.57C239.103 221.91 231.892 205.22 237.708 190.03C239.653 184.91 242.984 180.35 244.695 175.15C246.407 169.95 246.06 163.45 241.721 160.02C236.2 155.66 228.041 158.63 221.798 161.94C210.318 168.053 199.25 174.884 188.663 182.39C185.79 184.39 182.775 186.76 181.838 190.12C181.258 192.21 181.563 194.5 180.748 196.52C179.159 200.52 174.209 201.72 169.982 202.66C152.56 206.603 136.14 213.992 121.726 224.378C107.312 234.763 95.2077 247.925 86.1522 263.06C83.1479 267.972 80.7541 273.219 79.0221 278.69C76.985 285.69 76.4553 292.96 75.9664 300.19C74.6626 318.79 73.4063 337.38 72.1976 355.96C71.6577 364.19 71.1281 372.62 73.4199 380.55C74.8969 385.65 77.4942 390.42 78.5943 395.62C80.825 406.43 76.1191 417.47 70.2419 426.87C64.3646 436.27 57.1327 445.09 53.4454 455.46C51.2786 462.059 50.1654 468.947 50.1452 475.88C49.6028 499.278 56.2084 522.3 69.1113 541.98C81.6297 543.79 91.0007 531.57 102.501 526.38C119.358 518.79 140.647 524.87 156.486 515.49C160.356 513.2 163.707 510.08 167.802 508.19C171.52 506.48 175.645 505.87 179.709 505.29C194.723 503.16 209.931 501.19 225.016 502.79C246.407 505.06 268.52 514.39 288.637 506.86C293.598 505 298.141 502.19 303.122 500.38C321.456 493.71 341.828 501.68 361.354 500.21C358.298 500.05 356.934 496.65 356.363 493.66C355.08 487.027 353.946 480.36 352.961 473.66C352.095 467.85 351.352 461.88 352.706 456.17C353.949 450.87 356.923 446.17 359.419 441.31C367.293 426.01 370.623 408.85 377.377 393.03C380.585 385.49 384.507 378.29 388.316 371.03C403.696 341.23 415.676 309.853 424.038 277.47C415.146 261.8 407.089 245.47 398.196 229.81C395.619 225.27 392.971 220.65 389.029 217.14C383.386 212.06 375.737 209.85 368.372 207.8C362.047 206.03 355.63 204.25 349.019 204.24C342.408 204.23 323.809 197.45 319.348 202.18C314.744 207.06 325.103 222.82 324.868 229.46C324.634 236.1 325.378 242.82 324.257 249.38C322.627 258.95 317.127 267.48 314.632 276.86C313.644 281.3 312.886 285.785 312.36 290.3C310.697 300.396 308.004 310.302 304.323 319.87C303.652 321.885 302.658 323.782 301.38 325.49C296.552 331.29 288.79 329.09 281.293 327.86Z" fill="#192534"/>
<path d="M430.944 433.23C432.879 435.55 435.527 437.14 437.921 438.99C447.343 446.24 452.884 457.27 461.206 465.72C465.403 469.99 470.282 473.56 474.753 477.55C485.153 486.85 493.21 498.34 501.175 509.72C503.213 512.62 505.25 515.59 506.268 518.96C508.051 524.71 506.605 531.12 503.355 536.22C500.106 541.32 495.207 545.22 489.92 548.28C487.16 549.886 484.283 551.29 481.313 552.48C475.201 554.92 469.375 548.31 472.818 542.79C475.004 539.329 477.003 535.757 478.807 532.09C479.958 530.057 480.62 527.793 480.743 525.47C480.661 521.39 477.381 517.93 473.612 516.22C469.844 514.51 465.596 514.22 461.471 513.72C438.142 510.952 415.945 502.282 397.055 488.56C386.36 480.76 376.052 469.33 377.753 456.36C379.016 446.68 386.819 438.98 395.385 434.02C402.343 430.012 409.995 427.3 417.957 426.02C420.198 425.66 425.82 424.15 427.827 425.67C429.609 426.97 429.273 431.23 430.944 433.23Z" fill="#FBBEBE"/>
<path opacity="0.1" d="M430.944 433.23C432.879 435.55 435.527 437.14 437.921 438.99C447.343 446.24 452.884 457.27 461.206 465.72C465.403 469.99 470.282 473.56 474.753 477.55C485.153 486.85 493.21 498.34 501.175 509.72C503.213 512.62 505.25 515.59 506.268 518.96C508.051 524.71 506.605 531.12 503.355 536.22C500.106 541.32 495.207 545.22 489.92 548.28C487.16 549.886 484.283 551.29 481.313 552.48C475.201 554.92 469.375 548.31 472.818 542.79C475.004 539.329 477.003 535.757 478.807 532.09C479.958 530.057 480.62 527.793 480.743 525.47C480.661 521.39 477.381 517.93 473.612 516.22C469.844 514.51 465.596 514.22 461.471 513.72C438.142 510.952 415.945 502.282 397.055 488.56C386.36 480.76 376.052 469.33 377.753 456.36C379.016 446.68 386.819 438.98 395.385 434.02C402.343 430.012 409.995 427.3 417.957 426.02C420.198 425.66 425.82 424.15 427.827 425.67C429.609 426.97 429.273 431.23 430.944 433.23Z" fill="black"/>
<path d="M346.024 72.88C335.839 83.12 319.48 83.55 304.894 83.3L305.373 77.69L284.858 84.91C290.176 81.0298 294.738 76.2398 298.324 70.77C295.665 68.48 291.499 68.55 288.342 70.13C285.184 71.71 282.862 74.5 280.876 77.38C275.057 85.9367 271.352 95.7089 270.058 105.919C268.764 116.128 269.915 126.494 273.42 136.19C269.345 138.41 264.15 137.76 260.239 135.34C256.328 132.92 253.598 128.98 251.744 124.82C250.532 122.1 249.269 118.88 246.376 118.03C243.952 117.32 241.283 118.77 239.939 120.88C238.732 123.083 238.245 125.596 238.543 128.08C238.92 133.9 243.249 139.42 244.115 145.18C244.981 150.94 253.74 155.42 249.208 159.18C247.904 160.27 234.53 163.24 232.839 162.98C230.547 162.63 229.029 160.46 228.072 158.39C223.509 148.55 225.149 137.05 222.449 126.57C220.28 118.14 215.391 110.66 210.573 103.36C209.279 101.233 207.752 99.2512 206.02 97.45C204.42 95.91 202.444 94.58 201.67 92.52C200.896 90.46 202.322 87.52 204.532 87.85C200.965 84.4633 197.126 81.3633 193.053 78.58C197.087 73.5667 201.032 68.49 204.889 63.35C206.213 61.59 207.588 59.35 206.621 57.35C206.055 56.4337 205.259 55.676 204.308 55.15L193.776 48.15C193.542 43.4 203.392 45.15 204.909 40.66C205.177 39.4667 205.085 38.2229 204.645 37.08L201.059 24.24L214.678 30.3C216.328 31.04 218.09 31.79 219.893 31.53C223.488 31.02 225.22 26.84 225.403 23.27C225.587 19.7 225.006 15.86 226.809 12.75C232.975 12.51 239.137 12.5533 245.296 12.88C245.685 9.83704 244.864 6.76407 243.005 4.3L288.515 1.81999C296.287 1.39999 304.273 1.01 311.657 3.41C314.163 4.23 316.689 5.41 319.317 5.12C321.945 4.83 324.593 2.45 323.84 -0.0299988C330.66 3.75067 336.899 8.46454 342.368 13.97C343.844 15.6961 345.628 17.1431 347.634 18.24C349.671 19.18 352.462 19.14 354.01 17.48C355.253 16.15 355.874 13.83 357.708 13.75C358.848 13.75 359.745 14.63 360.468 15.52C363.07 18.7882 365.189 22.4005 366.763 26.25C370.028 25.8179 373.227 24.9916 376.287 23.79C373.109 26.42 373.027 31.32 374.545 35.12C376.063 38.92 378.813 42.12 380.656 45.76C382.491 49.6694 383.723 53.8248 384.313 58.09C385.24 63.43 385.25 70.16 380.422 72.78C376.226 75.06 371.021 72.63 367.18 69.78C356.608 62 354.591 64.28 346.024 72.88Z" fill="#01E7C0"/>
<path d="M399.286 545.34L469.864 539.09C472.701 538.84 475.329 537.52 477.194 535.407C479.06 533.294 480.018 530.552 479.867 527.76L479.816 526.76C479.699 524.537 478.884 522.403 477.484 520.652C476.083 518.901 474.165 517.619 471.993 516.98L460.585 513.62C459.557 513.317 458.49 513.162 457.417 513.16H431.535C430.827 513.162 430.121 513.229 429.426 513.36C423.956 514.41 398.787 519.27 397.85 520.16C397.351 520.66 394.356 522.86 391.463 524.96C389.732 526.215 388.415 527.942 387.674 529.926C386.934 531.91 386.803 534.064 387.297 536.12L387.511 537.04C388.116 539.59 389.643 541.837 391.809 543.363C393.975 544.89 396.632 545.592 399.286 545.34Z" fill="#464A5F"/>
<path d="M364.817 523.68L393.338 515.68L446.304 508.68C446.304 508.68 479.918 499.68 482.973 527.68L480.121 532.42C480.121 532.42 482.973 514.68 448.341 519.68C448.341 519.68 386.075 517.63 388.693 541.68C388.693 541.66 366.854 537.68 364.817 523.68Z" fill="#6C63FF"/>
<path d="M403.523 506.69C407.461 506.69 410.654 506.242 410.654 505.69C410.654 505.138 407.461 504.69 403.523 504.69C399.586 504.69 396.393 505.138 396.393 505.69C396.393 506.242 399.586 506.69 403.523 506.69Z" fill="#6C63FF"/>
<path d="M467.185 506.19H462.092V515.19H467.185V506.19Z" fill="#6C63FF"/>
<path d="M406.07 506.19H400.977V515.19H406.07V506.19Z" fill="#6C63FF"/>
<path d="M471.21 507.006C471.713 505.716 468.714 503.39 464.511 501.81C460.308 500.229 456.494 499.993 455.991 501.282C455.487 502.572 458.486 504.898 462.689 506.479C466.892 508.059 470.706 508.295 471.21 507.006Z" fill="#6C63FF"/>
<path d="M175.39 522.21C177.57 524.44 179.791 526.71 182.592 528.11C185.363 529.318 188.314 530.084 191.331 530.38C222.188 535.047 252.935 540.267 283.575 546.04C292.202 547.68 300.891 549.38 309.039 552.67C313.195 554.36 317.188 556.46 321.262 558.23C344.69 568.32 371.173 567.67 396.729 566.83C401.731 566.67 406.915 566.47 411.428 564.42C414.799 562.91 417.885 560.04 418.191 556.42C418.721 550.13 411.438 546.42 405.622 543.71C391.738 537.28 379.637 526.82 372.324 513.56C371.02 511.22 369.961 508.07 371.794 506.09C373.169 504.61 375.502 504.6 377.549 504.68C386.106 505.007 394.662 504.92 403.218 504.42C407.649 504.15 413.516 502.09 412.813 497.8C412.507 495.96 410.959 494.59 409.492 493.39C401.782 487.03 393.032 480.48 382.958 480.67C377.672 480.77 372.63 482.75 367.679 484.42C341.013 493.3 312.299 493.79 284.155 493.61C277.269 493.61 270.333 493.48 263.59 492.1C258.051 490.814 252.626 489.099 247.364 486.97C230.292 480.58 213.149 474.15 197.341 465.18C191.056 461.62 184.048 457.5 177.04 459.33C173.896 460.332 171.036 462.045 168.688 464.33C160.346 471.73 153.307 480.79 155.681 492.15C158.095 504.09 167.099 513.71 175.39 522.21Z" fill="#FBBEBE"/>
<path d="M170.848 329.09C173.476 337.44 175.014 346.28 179.536 353.81C184.334 361.81 192.319 368.01 195.09 376.88C197.046 383.16 196.109 389.88 196.109 396.47C196.109 403.94 197.545 411.64 201.752 417.86C203.87 421 206.631 423.66 209.045 426.59C219.75 439.59 223.05 456.95 224.385 473.59C214.199 467.93 202.281 462.09 191.25 465.98C186.789 467.56 183.02 470.6 179.516 473.75C172.716 479.845 166.501 486.54 160.947 493.75C158.034 497.52 155.172 502.13 156.435 506.69C150.405 498.09 144.293 489.43 139.608 479.97C136.287 473.21 133.71 466.07 129.727 459.65C124.716 451.58 117.657 444.95 111.719 437.51C98.3751 420.79 90.8885 400.09 87.2522 379.2C83.6158 358.31 83.4631 336.91 83.5751 315.67C83.5751 308.67 83.7279 301.39 86.7327 295.02C88.5152 291.23 91.2349 287.95 93.9341 284.72C97.3566 280.61 100.881 276.42 105.536 273.72C120.346 265.16 136.236 279.35 146.137 289.06C157.556 300.241 166.036 313.978 170.848 329.09V329.09Z" fill="#192534"/>
<path d="M426.167 281.09C427.539 282.319 428.647 283.805 429.426 285.46C430.2 287.46 429.997 289.66 429.834 291.79C428.868 304.473 429.785 317.226 432.553 329.65C434.214 337.16 436.312 345.85 431.433 351.86C430.679 352.65 429.997 353.503 429.396 354.41C427.134 358.57 431.311 363.1 434.489 366.67C444.145 377.67 445.693 394.88 438.206 407.43C436.791 409.82 435.059 412.08 434.265 414.72C433.728 416.892 433.515 419.128 433.633 421.36L433.674 438.09C422.968 436.68 411 435.58 402.393 441.99C395.13 447.39 392.258 456.79 386.096 463.33C380.116 469.63 370.817 473.69 368.484 481.99L368.606 447.42C368.758 442.827 368.506 438.23 367.853 433.68C366.63 426.53 363.463 419.84 361.609 412.82C359.184 403.64 359.032 394.05 358.889 384.56C358.655 368.89 358.431 353.05 361.741 337.72C363.096 331.48 365.021 325.37 366.508 319.16C369.207 307.96 370.582 296.3 375.319 285.78C380.055 275.26 389.355 265.72 401.028 264.59C413.322 263.38 418.538 273.26 426.167 281.09Z" fill="#192534"/>
<path d="M471.763 505.441C475.173 503.508 474.974 496.9 471.317 490.683C467.66 484.465 461.932 480.991 458.521 482.924C455.111 484.857 455.311 491.465 458.967 497.683C462.624 503.9 468.353 507.374 471.763 505.441Z" fill="#FBBEBE"/>
<path opacity="0.1" d="M471.763 505.441C475.173 503.508 474.974 496.9 471.317 490.683C467.66 484.465 461.932 480.991 458.521 482.924C455.111 484.857 455.311 491.465 458.967 497.683C462.624 503.9 468.353 507.374 471.763 505.441Z" fill="black"/>
</g>
<defs>
<clipPath id="clip0">
<rect width="548" height="572" fill="white"/>
</clipPath>
</defs>
</svg>
